<svg width="16" height="16" fill="none" xmlns="http://www.w3.org/2000/svg"><path fill-rule="evenodd" clip-rule="evenodd" d="M11.112 5.427c-.461-2.216-1.849-3.882-2.691-4.231v4.343c.842-.01 1.95-.054 2.691-.112zm2.913-.464c-.153.047-.775.22-2.005.366-.278-1.476-.779-2.734-1.432-3.643a6.915 6.915 0 013.438 3.277zM8.421 6.517a46.486 46.486 0 002.806-.122c.065.518.081 1.054.081 1.606 0 .709-.025 1.396-.13 2.045a45.905 45.905 0 00-2.757-.117V6.517zm0 4.39v3.9c.842-.326 2.089-1.8 2.589-3.795a44.46 44.46 0 00-2.589-.105zm2.167 3.41c.588-.82 1.057-1.918 1.347-3.208.968.111 1.577.24 1.885.318a6.92 6.92 0 01-3.232 2.89zm1.58-8.02a14.797 14.797 0 01-.06 3.845c1.196.14 1.875.31 2.146.388a6.829 6.829 0 00.488-2.529c0-.883-.172-1.758-.505-2.576l.158.447c-.044.015-.714.243-2.227.425z" fill="#fff"/></svg>